# xmcd CD database file generated by OrangeCD 5.2
#
# Track frame offsets:
#	150
#	13250
#	27897
#	44862
#	61622
#	84187
#	95492
#	111727
#	127437
#	148500
#
# Disc length: 2275 seconds
#
# Revision: 19
# Processed by: cddbd v1.5.1PL2 Copyright (c) Steve Scherf et al.
# Submitted via: OrangeCD 5.2
#
DISCID=9008e10a
DTITLE=Various Artist - Citgo Presents:  Christmas In The Country
DYEAR=1996
DGENRE=Holiday
TTITLE0=Alan Jackson - Honky Tonk Christmas
TTITLE1=The Tractors - Swingin' Home For Christmas
TTITLE2=Restless Heart - Little Drummer Boy
TTITLE3=Emmylou Harris - O Little Town Of Bethlehem
TTITLE4=Joe Diffie - O Holy Night
TTITLE5=Aaron Tippin - Rudolph The Red Nosed Reindeer
TTITLE6=Alabama - Christmas In Dixie
TTITLE7=Suzy Bogguss - The First Noel
TTITLE8=Vince Gill - Do You Hear What I Hear?
TTITLE9=Lorrie Morgan - Ave Maria
EXTD=
EXTT0=Alan Jackson
EXTT1=The Tractors
EXTT2=Restless Heart
EXTT3=Emmylou Harris
EXTT4=Joe Diffie
EXTT5=Aaron Tippin
EXTT6=Alabama
EXTT7=Suzy Bogguss
EXTT8=Vince Gill
EXTT9=Lorrie Morgan
PLAYORDER=
